# xmcd CD database file
#
# Track frame offsets:
#	150
#	5685
#	27790
#	43300
#	63747
#	81680
#	100852
#	122655
#	139322
#
# Disc length: 2112 seconds
#
# Revision: 5
# Processed by: cddbd v1.5.2PL0 Copyright (c) Steve Scherf et al.
# Submitted via: CDex 1.70beta3
#
DISCID=82083e09
DTITLE=浜田麻里 - RAINBOW DREAM
DYEAR=1985
DGENRE=J-Metal
TTITLE0=RAINBOW DREAM
TTITLE1=CAN'T YOU SEE MY LIFE
TTITLE2=THE MOMENT OF TRUTH
TTITLE3=LOVE, LOVE, LOVE
TTITLE4=LAST SCENE
TTITLE5=LOVE MAGIC
TTITLE6=FREE WAY
TTITLE7=LONELY WOMAN
TTITLE8=HEARTY MY SONG
EXTD=YEAR: 1985
EXTT0=
EXTT1=
EXTT2=
EXTT3=
EXTT4=
EXTT5=
EXTT6=
EXTT7=
EXTT8=
PLAYORDER=
